<?xml version="1.0" encoding="UTF-8"?> <svg xmlns="http://www.w3.org/2000/svg" width="57" height="48" viewBox="0 0 57 48"><metadata><?xpacket begin="﻿" id="W5M0MpCehiHzreSzNTczkc9d"?><?xpacket end="w"?></metadata><defs><style> .cls-1 { fill: #43b02a; fill-rule: evenodd; } </style></defs><path id="white-electronics-free-shipping" class="cls-1" d="M216.063,1615.3V1614a3.582,3.582,0,0,0-3.563-3.6H200.625v-6a1.19,1.19,0,0,0-1.188-1.2h-3.562v-3.6a1.19,1.19,0,0,0-1.188-1.2H178.555l-2.028-2.05a1.176,1.176,0,0,0-1.679,0l-6.777,6.85h-1.884a1.189,1.189,0,0,0-1.187,1.2V1638a1.2,1.2,0,0,0,1.187,1.2h4.87a6.042,6.042,0,0,0,1.071,2.4H169.75a1.2,1.2,0,0,0,0,2.4h7.133a5.972,5.972,0,0,0,5.81-4.8h21.615a5.98,5.98,0,0,0,1.071,2.4H203a1.2,1.2,0,0,0,0,2.4h7.133a5.971,5.971,0,0,0,5.809-4.8h4.869A1.2,1.2,0,0,0,222,1638v-15.6A7.189,7.189,0,0,0,216.063,1615.3ZM193.5,1600.8v2.4H183.305l-2.375-2.4H193.5Zm-17.812-1.91,1.535,1.55a0.016,0.016,0,0,0,0,.01l2.722,2.75H171.43Zm1.187,42.71a3.6,3.6,0,1,1,3.562-3.6A3.589,3.589,0,0,1,176.875,1641.6Zm21.375-30V1632h-8.076a1.2,1.2,0,0,0,0,2.4h8.076v2.4H182.693a5.926,5.926,0,0,0-11.636,0h-3.682v-19.2h4.75a1.2,1.2,0,0,0,0-2.4h-4.75v-2.4h14.249a1.2,1.2,0,0,0,0-2.4H167.375v-4.8H198.25v6h0Zm6.058,25.2h-3.683v-2.4h4.754A5.98,5.98,0,0,0,204.308,1636.8Zm9.38,1.2a3.563,3.563,0,1,1-3.572-3.6h0.012a3.581,3.581,0,0,1,3.56,3.59V1638h0Zm5.937-1.2h-3.682a5.957,5.957,0,0,0-5.817-4.8h-9.5v-19.2H212.5a1.2,1.2,0,0,1,1.188,1.2v1.2h-8.313a1.2,1.2,0,0,0-1.187,1.2v10.8a1.2,1.2,0,0,0,1.187,1.2h14.25v8.4Zm-10.687-19.2v8.4h-2.375v-8.4h2.375Zm10.687,8.4h-8.312v-8.4h3.562a4.779,4.779,0,0,1,4.75,4.8v3.6h0Zm-34.1,8.4h0.742a1.2,1.2,0,0,0,0-2.4h-0.742A1.2,1.2,0,0,0,185.528,1634.4Zm0-21.6h0.742a1.2,1.2,0,0,0,0-2.4h-0.742A1.2,1.2,0,0,0,185.528,1612.8Z" transform="translate(-165 -1596)"></path></svg> 