<?xml version="1.0" encoding="UTF-8"?> <svg xmlns="http://www.w3.org/2000/svg" width="40" height="48" viewBox="0 0 40 48"><metadata><?xpacket begin="﻿" id="W5M0MpCehiHzreSzNTczkc9d"?><?xpacket end="w"?></metadata><defs><style> .cls-1 { fill: #43b02a; fill-rule: evenodd; } </style></defs><path id="white-electronics-support" class="cls-1" d="M1026.26,1627.35v-0.01a15.782,15.782,0,0,0-3.77-2.74,13.579,13.579,0,0,0-17.74-20.47,14.012,14.012,0,0,0-2.27-4.57c-1.65-2.4-3.373-3.56-5.265-3.56-2.243,0-4.06,1.64-5.663,3.09-0.281.26-.547,0.5-0.805,0.72a5.674,5.674,0,0,0-1.711,3.99,22.153,22.153,0,0,0,2.123,9.88,50.261,50.261,0,0,0,8.1,12.65c8,9.44,16.565,13.67,21.5,13.67a5.177,5.177,0,0,0,3.39-1.03l0.01-.01c0.27-.23.57-0.47,0.87-0.73,1.82-1.49,3.89-3.18,3.98-5.66C1029.06,1630.87,1028.17,1629.16,1026.26,1627.35Zm-21.57-20.53a11.581,11.581,0,1,1,15.48,17.19,0.277,0.277,0,0,0-.09-0.01c-1.86,0-3.17,1.12-4.55,2.32,0,0.01,0,.01-0.01.01a0.6,0.6,0,0,0-.08.08c-0.16.13-.31,0.27-0.47,0.41a0.592,0.592,0,0,1-.42.14c-0.85,0-3.02-.89-8.11-6.83a40.98,40.98,0,0,1-4.51-6.16c-0.88-1.61-1.14-2.8-.7-3.2,0.13-.1.26-0.21,0.39-0.31C1002.94,1609.37,1004.2,1608.34,1004.69,1606.82Zm19.07,29.87c-0.32.26-.62,0.5-0.91,0.75a3.293,3.293,0,0,1-2.1.56c-4.33,0-12.42-4.06-19.97-12.97A48.282,48.282,0,0,1,993,1612.89a20.17,20.17,0,0,1-1.969-8.93,3.838,3.838,0,0,1,1.008-2.62l0.01-.01c0.278-.24.554-0.49,0.847-0.75,0.457-.42.935-0.85,1.425-1.24a32.58,32.58,0,0,1,2.286,2.83,0.994,0.994,0,0,0,1.4.23,0.993,0.993,0,0,0,.23-1.39,32.993,32.993,0,0,0-2.192-2.75,3.127,3.127,0,0,1,1.176-.26c1.168,0,2.385.91,3.615,2.7,1.64,2.37,2.29,4.11,2.01,5.31-0.25,1.06-1.24,1.88-2.49,2.9-0.13.11-.27,0.22-0.4,0.33l-0.019.02c-1.285,1.11-1.2,3.02.251,5.67a40.964,40.964,0,0,0,4.74,6.49c4.4,5.14,7.46,7.54,9.63,7.54a2.593,2.593,0,0,0,1.73-.63l0.03-.03c0.51,0.32,1.28.81,2.07,1.37,0.66,0.46,1.23.89,1.7,1.28a0.962,0.962,0,0,0,.64.24,1,1,0,0,0,.65-1.76c-0.51-.43-1.13-0.9-1.84-1.4-0.59-.41-1.16-0.78-1.63-1.09a3.657,3.657,0,0,1,2.18-.94c1.21,0,2.78.92,4.81,2.8,1.44,1.38,2.15,2.62,2.11,3.7C1026.94,1634.08,1025.32,1635.4,1023.76,1636.69Zm-23.841-30.61a0.974,0.974,0,0,0,.491-0.13,1,1,0,0,0,.38-1.36,8.6,8.6,0,0,0-.49-0.78,1,1,0,0,0-1.635,1.15,6.412,6.412,0,0,1,.382.61A1.012,1.012,0,0,0,999.919,1606.08Zm23.851,25.42a1,1,0,0,0-1.41-.02,1.017,1.017,0,0,0-.02,1.42c0.01,0,.12.12,0.55,0.6a1,1,0,1,0,1.49-1.33C1023.92,1631.65,1023.79,1631.52,1023.77,1631.5Zm-8.61-15.05h3.32v1.63a0.785,0.785,0,0,0,.9.57,0.773,0.773,0,0,0,.9-0.57v-1.63h0.65a0.8,0.8,0,0,0,.57-0.83,0.735,0.735,0,0,0-.57-0.85h-0.65v-1.45a0.745,0.745,0,0,0-.9-0.56,0.756,0.756,0,0,0-.9.56v1.45h-1.61l2.65-5.3a0.636,0.636,0,0,0,.07-0.24,0.922,0.922,0,0,0-.9-0.69,0.8,0.8,0,0,0-.76.47l-3.28,6.44a0.736,0.736,0,0,0-.09.36A0.589,0.589,0,0,0,1015.16,1616.45Zm-7.12,2.2h4.92a0.745,0.745,0,0,0,.57-0.81,0.707,0.707,0,0,0-.57-0.77h-3.84v-0.33c0-1.44,4.38-2.41,4.38-5.39a2.894,2.894,0,0,0-3.1-2.81,2.736,2.736,0,0,0-2.97,2.54,0.786,0.786,0,0,0,.82.97,0.817,0.817,0,0,0,.94-0.66,1.121,1.121,0,0,1,1.23-1.22,1.2,1.2,0,0,1,1.28,1.23c0,1.95-4.45,3.13-4.45,5.34v1.34A0.769,0.769,0,0,0,1008.04,1618.65ZM1019,1642H999a1,1,0,1,0,0,2h20A1,1,0,0,0,1019,1642Z" transform="translate(-989 -1596)"></path></svg> 