<?xml version="1.0" encoding="UTF-8"?> <svg xmlns="http://www.w3.org/2000/svg" width="48" height="48" viewBox="0 0 48 48"><metadata><?xpacket begin="﻿" id="W5M0MpCehiHzreSzNTczkc9d"?><?xpacket end="w"?></metadata><defs><style> .cls-1 { fill: #43b02a; fill-rule: evenodd; } </style></defs><path id="white-electronics-return" class="cls-1" d="M625,1600h-4v-1a3,3,0,0,0-6,0v1H597v-1a3,3,0,0,0-6,0v1h-4a5,5,0,0,0-5,5v38a1,1,0,0,0,1,1h46a1,1,0,0,0,1-1v-38A5,5,0,0,0,625,1600Zm-8-1a1,1,0,0,1,2,0v4a1,1,0,0,1-2,0v-4Zm-24,0a1,1,0,0,1,2,0v4a1,1,0,0,1-1,1h0a1,1,0,0,1-1-1v-4Zm35,43H584v-32h37.787a1,1,0,1,0,0-2H584v-3a3,3,0,0,1,3-3h4v1a3,3,0,0,0,6,0v-1h18v1a3,3,0,0,0,6,0v-1h4a3,3,0,0,1,3,3v37h0Zm-2.521-34h-0.6a1,1,0,0,0,0,2h0.6A1,1,0,1,0,625.479,1608ZM624,1613H588a1,1,0,0,0-1,1v18a1,1,0,0,0,1,1h5v4h-1.488a1,1,0,0,0,0,2H624a1,1,0,0,0,1-1v-24A1,1,0,0,0,624,1613Zm-17,2h4v4h-4v-4Zm0,12h4v4h-4v-4Zm-14,4h-4v-4h4v4Zm0-6h-4v-4h4v4Zm0-6h-4v-4h4v4Zm6,18h-4v-4h4v4h0Zm0-6h-4v-4h4v4h0Zm0-6h-4v-4h4v4h0Zm0-6h-4v-4h4v4h0Zm6,18h-4v-4h4v4Zm0-6h-4v-4h4v4Zm0-6h-4v-4h4v4Zm0-6h-4v-4h4v4Zm6,18h-4v-4h4v4Zm0-12h-4v-4h4v4Zm6,12h-4v-4h4v4Zm0-6h-4v-4h4v4Zm0-6h-4v-4h4v4Zm0-6h-4v-4h4v4Zm6,18h-4v-4h4v4Zm0-6h-4v-4h4v4Zm0-6h-4v-4h4v4Zm0-6h-4v-4h4v4Zm-34.583,18H588a1,1,0,0,0,0,2h0.417A1,1,0,0,0,588.417,1637Z" transform="translate(-582 -1596)"></path></svg> 